<svg width="1495" height="865" viewBox="0 0 1495 865" fill="none" xmlns="http://www.w3.org/2000/svg">
<path fill-rule="evenodd" clip-rule="evenodd" d="M246.548 3H335.01H396.004H1265.75C1293.5 3 1311.53 3.11889 1326.63 7.70438C1343.37 13.5614 1352.79 22.5114 1358.86 38.5471C1363.65 53.107 1364.13 70.2081 1364.13 96.8768V731.707C1364.13 758.376 1363.65 775.539 1358.88 790.039C1352.79 806.132 1343.12 815.023 1326.44 820.86C1311.29 825.465 1293.49 825.584 1265.75 825.584C1264.96 826.338 247.868 825.584 247.868 825.584C220.122 825.584 201.222 825.465 186.135 820.879C169.392 815.023 160.433 806.073 154.36 790.036C149.953 776.64 149.974 761.091 150.005 737.915C150.008 735.904 150.011 733.836 150.011 731.707V96.8768C150.011 94.7405 150.008 92.6651 150.005 90.6473C149.974 67.4765 149.952 51.8857 154.34 38.5443C160.433 22.4519 169.171 13.5614 185.856 7.72389C201.002 3.11889 218.801 3 246.548 3Z" fill="white"/>
<path d="M192.999 14.5907L193.141 15.0701L193.144 15.0693L192.999 14.5907ZM192.989 14.5936L192.847 14.1142L192.834 14.118L192.822 14.1224L192.989 14.5936ZM192.979 14.597L193.144 15.0693L193.146 15.0683L192.979 14.597ZM173.315 26.0681L172.965 25.7112L172.965 25.7112L173.315 26.0681ZM161.563 45.1553L162.03 45.3338L162.03 45.3331L161.563 45.1553ZM161.559 45.1656L161.092 44.9871L161.088 44.9976L161.084 45.0084L161.559 45.1656ZM161.556 45.1761L161.081 45.0189L161.081 45.0192L161.556 45.1761ZM157.25 96.4619L156.75 96.4626H156.75L157.25 96.4619ZM157.252 730.698L157.752 730.699L157.752 730.699L157.252 730.698ZM157.25 732.108L157.75 732.108L157.25 732.108ZM161.575 783.41L161.1 783.567L161.1 783.568L161.575 783.41ZM161.578 783.421L161.104 783.578L161.107 783.588L161.11 783.598L161.578 783.421ZM161.582 783.431L161.114 783.608L161.115 783.609L161.582 783.431ZM173.436 802.504L173.784 802.146H173.784L173.436 802.504ZM193.255 814.012L193.42 813.541L193.419 813.54L193.255 814.012ZM193.264 814.016L193.099 814.488L193.111 814.492L193.122 814.495L193.264 814.016ZM193.274 814.019L193.419 813.54L193.416 813.539L193.274 814.019ZM254.364 818.66V819.16H254.864V818.66H254.364ZM254.364 818.282L254.864 818.281L253.864 818.282H254.364ZM254.547 818.66L254.547 818.16H254.547V818.66ZM255.091 818.66L255.091 819.16H255.091L255.091 818.66ZM257.244 818.662L257.245 818.162H257.244L257.244 818.662ZM265.64 818.668L265.64 819.168H265.64L265.64 818.668ZM273.022 818.673L273.022 818.173L273.022 818.673ZM297.51 818.69L297.51 819.19H297.51L297.51 818.69ZM411.267 818.764L411.268 818.264L411.267 818.764ZM756.514 818.937L756.514 818.437L756.514 818.937ZM1101.91 818.972L1101.91 819.472L1101.91 818.972ZM1215.84 818.872L1215.85 819.372L1215.84 818.872ZM1256.3 818.725L1256.29 818.225H1256.29L1256.3 818.725ZM1257.67 818.708L1257.66 818.208H1257.66L1257.67 818.708ZM1258.49 818.693L1258.48 818.193L1258.49 818.693ZM1258.85 818.684L1258.87 819.184L1258.87 819.184L1258.85 818.684ZM1259.07 818.676L1259.09 819.176L1259.09 819.176L1259.07 818.676ZM1259.23 818.667L1259.27 819.165L1259.28 819.164L1259.23 818.667ZM1259.29 818.66V818.16H1259.26L1259.23 818.164L1259.29 818.66ZM1319.31 814L1319.17 813.521L1319.16 813.521L1319.31 814ZM1319.32 813.997L1319.46 814.476L1319.47 814.472L1319.48 814.469L1319.32 813.997ZM1319.33 813.993L1319.16 813.521L1319.16 813.521L1319.33 813.993ZM1339.44 802.53L1339.78 802.895L1339.44 802.53ZM1351.66 783.435L1352.12 783.613L1352.12 783.609L1351.66 783.435ZM1351.66 783.425L1352.13 783.599L1352.13 783.589L1352.13 783.579L1351.66 783.425ZM1351.66 783.414L1351.19 783.257L1351.19 783.259L1351.66 783.414ZM1351.64 45.1788L1351.17 45.3336L1351.17 45.3359L1351.64 45.1788ZM1351.64 45.1683L1352.12 45.0135L1352.11 45.0028L1352.11 44.9922L1351.64 45.1683ZM1351.64 45.158L1352.1 44.9818L1352.1 44.9801L1351.64 45.158ZM1339.55 26.0824L1339.9 25.7199V25.7199L1339.55 26.0824ZM1319.51 14.5779L1319.35 15.0498L1319.35 15.0501L1319.51 14.5779ZM1319.5 14.5745L1319.67 14.1025L1319.65 14.0982L1319.64 14.0946L1319.5 14.5745ZM1319.49 14.5715L1319.35 15.0502L1319.35 15.0514L1319.49 14.5715ZM193.298 15.5449L193.154 15.0663L193.144 15.0693L193.134 15.0727L193.298 15.5449ZM174.016 26.782L174.366 27.1389L174.366 27.1389L174.016 26.782ZM1319.19 15.5258L1319.36 15.0535L1319.35 15.0501L1319.34 15.0471L1319.19 15.5258ZM1338.86 26.8074L1338.52 27.1698V27.1698L1338.86 26.8074ZM1350.7 45.5048L1351.17 45.3478L1351.17 45.3372L1351.17 45.3268L1350.7 45.5048ZM1350.72 783.088L1351.18 783.266L1351.19 783.256L1351.19 783.245L1350.72 783.088ZM1338.76 801.801L1338.41 801.436H1338.41L1338.76 801.801ZM1319.01 813.045L1319.16 813.524L1319.17 813.521L1319.17 813.517L1319.01 813.045ZM1259.04 817.66V817.16H1258.84L1258.7 817.299L1259.04 817.66ZM1259.03 817.677L1259.05 818.176L1259.24 818.166L1259.37 818.038L1259.03 817.677ZM1259.02 817.677L1259.04 818.177L1259.05 818.176L1259.02 817.677ZM1258.47 817.693L1258.46 817.193L1258.47 817.693ZM1257.35 817.712L1257.35 817.212H1257.35L1257.35 817.712ZM1256.29 817.725L1256.28 817.225L1256.29 817.725ZM1247.83 817.782L1247.83 817.282L1247.83 817.782ZM1215.84 817.872L1215.84 818.372L1215.84 817.872ZM1101.91 817.972L1101.91 818.472L1101.91 817.972ZM756.514 817.937L756.514 817.437L756.514 817.937ZM411.268 817.764L411.268 817.264L411.268 817.764ZM297.511 817.69L297.511 818.19L297.511 817.69ZM267.015 817.669L267.015 818.169H267.015L267.015 817.669ZM265.641 817.668L265.641 818.168H265.641L265.641 817.668ZM257.245 817.662L257.245 817.162H257.245L257.245 817.662ZM255.092 817.66L255.092 818.16H255.092L255.092 817.66ZM254.547 817.66L254.548 817.16H254.547V817.66ZM254.366 817.774L253.866 817.765V817.765L254.366 817.774ZM254.364 818.16H253.864L254.864 818.16L254.364 818.16ZM254.364 817.66H254.864V817.16H254.364V817.66ZM193.574 813.065L193.41 813.537L193.419 813.54L193.429 813.543L193.574 813.065ZM174.133 801.787L174.481 801.429H174.481L174.133 801.787ZM162.521 783.086L162.046 783.243L162.049 783.253L162.053 783.264L162.521 783.086ZM158.25 732.041L158.75 732.041L158.25 732.041ZM158.255 728.357L158.755 728.357V728.357L158.255 728.357ZM158.25 96.5293L158.75 96.5286V96.5286L158.25 96.5293ZM162.501 45.5006L162.034 45.3227L162.03 45.3331L162.027 45.3437L162.501 45.5006ZM194.439 18.1351L194.294 17.6565L194.284 17.6595L194.274 17.6629L194.439 18.1351ZM176.148 28.7433L176.497 29.1013L176.497 29.1013L176.148 28.7433ZM1318.03 18.1161L1318.2 17.6439L1318.19 17.6405L1318.18 17.6374L1318.03 18.1161ZM1336.72 28.7114L1336.38 29.0766V29.0766L1336.72 28.7114ZM1347.98 46.3243L1348.46 46.1674L1348.45 46.1568L1348.45 46.1464L1347.98 46.3243ZM1348 782.15L1348.47 782.328L1348.47 782.317L1348.48 782.307L1348 782.15ZM1336.85 799.928L1337.19 800.288V800.288L1336.85 799.928ZM1318.33 810.62L1318.47 811.099L1318.48 811.096L1318.49 811.092L1318.33 810.62ZM194.28 810.639L194.115 811.111L194.125 811.114L194.135 811.117L194.28 810.639ZM176.051 800.012L175.7 800.369H175.7L176.051 800.012ZM165.235 782.348L164.76 782.505L164.764 782.516L164.768 782.526L165.235 782.348ZM161.118 732.145L160.618 732.144L161.118 732.145ZM161.122 728.391L161.622 728.392L161.122 728.391ZM161.118 96.424L160.618 96.4246V96.4247L161.118 96.424ZM165.216 46.4402L164.749 46.2622L164.745 46.2727L164.741 46.2833L165.216 46.4402ZM194.139 17.1809L193.995 16.7023L193.992 16.7031L194.139 17.1809ZM194.13 17.184L193.982 16.7062L193.973 16.7089L193.964 16.712L194.13 17.184ZM194.12 17.1874L194.284 17.6596L194.285 17.6593L194.12 17.1874ZM175.45 28.0272L175.799 28.3853L175.799 28.3853L175.45 28.0272ZM164.278 46.0947L164.745 46.2733L164.745 46.2726L164.278 46.0947ZM164.274 46.1051L163.807 45.9265L163.802 45.9379L163.799 45.9494L164.274 46.1051ZM164.27 46.1157L164.745 46.2727L164.745 46.2714L164.27 46.1157ZM160.117 96.3573L160.617 96.3566V96.3566L160.117 96.3573ZM160.117 732.212L160.617 732.213L160.117 732.212ZM164.289 782.673L163.815 782.83L163.816 782.833L164.289 782.673ZM164.293 782.683L163.819 782.843L163.822 782.852L163.825 782.86L164.293 782.683ZM164.297 782.694L163.829 782.871L163.83 782.872L164.297 782.694ZM175.349 800.725L175.7 800.368H175.7L175.349 800.725ZM193.961 811.586L193.797 812.059L193.798 812.059L193.961 811.586ZM193.971 811.59L193.808 812.062L193.818 812.066L193.829 812.069L193.971 811.59ZM193.981 811.593L194.125 811.114L194.123 811.113L193.981 811.593ZM1318.63 811.575L1318.49 811.095L1318.48 811.096L1318.63 811.575ZM1318.64 811.572L1318.78 812.052L1318.79 812.048L1318.8 812.044L1318.64 811.572ZM1318.65 811.568L1318.48 811.096L1318.48 811.096L1318.65 811.568ZM1337.54 800.649L1337.89 801.01L1337.54 800.649ZM1348.94 782.497L1348.47 782.319L1348.47 782.319L1348.94 782.497ZM1348.94 782.486L1349.41 782.664L1349.42 782.653L1349.42 782.641L1348.94 782.486ZM1348.95 782.476L1348.47 782.319L1348.47 782.321L1348.95 782.476ZM1348.93 46.0007L1348.45 46.1555L1348.45 46.1578L1348.93 46.0007ZM1348.92 45.9902L1349.4 45.8354L1349.4 45.8247L1349.39 45.8141L1348.92 45.9902ZM1348.92 45.9799L1349.39 45.8037L1349.39 45.802L1348.92 45.9799ZM1337.41 27.9811L1337.07 28.3462V28.3462L1337.41 27.9811ZM1318.35 17.1682L1318.18 17.6401L1318.19 17.6404L1318.35 17.1682ZM1318.34 17.1648L1318.5 16.6929L1318.5 16.6895L1318.49 16.6865L1318.34 17.1648ZM1318.33 17.1617L1318.48 16.6835L1318.47 16.6831L1318.33 17.1617ZM193.144 15.0693C208.096 10.5474 225.668 10.4307 253.06 10.4307V9.43066C225.718 9.43066 207.979 9.5381 192.854 14.1121L193.144 15.0693ZM193.131 15.073L193.141 15.0701L192.857 14.1113L192.847 14.1142L193.131 15.073ZM193.146 15.0683L193.156 15.0649L192.822 14.1224L192.812 14.1258L193.146 15.0683ZM173.666 26.425C178.633 21.5509 184.908 17.9353 193.144 15.0693L192.815 14.1248C184.479 17.0256 178.064 20.7079 172.965 25.7112L173.666 26.425ZM162.03 45.3331C165.038 37.4322 168.698 31.2992 173.666 26.425L172.965 25.7112C167.867 30.714 164.138 36.9839 161.096 44.9774L162.03 45.3331ZM162.026 45.3442L162.03 45.3338L161.096 44.9767L161.092 44.9871L162.026 45.3442ZM162.03 45.3334L162.034 45.3229L161.084 45.0084L161.081 45.0189L162.03 45.3334ZM157.75 96.4612C157.718 73.7216 157.702 58.4206 162.03 45.3331L161.081 45.0192C156.691 58.2942 156.718 73.7813 156.75 96.4626L157.75 96.4612ZM157.756 102.612C157.756 100.503 157.753 98.4538 157.75 96.4612L156.75 96.4626C156.753 98.4553 156.756 100.504 156.756 102.612H157.756ZM157.756 725.978V102.612H156.756V725.978H157.756ZM157.752 730.699C157.754 729.159 157.756 727.586 157.756 725.978H156.756C156.756 727.586 156.754 729.158 156.752 730.698L157.752 730.699ZM157.75 732.108L157.752 730.699L156.752 730.698L156.75 732.107L157.75 732.108ZM162.049 783.253C157.703 770.112 157.718 754.853 157.75 732.108L156.75 732.107C156.718 754.793 156.691 770.239 161.1 783.567L162.049 783.253ZM162.053 783.264L162.049 783.253L161.1 783.568L161.104 783.578L162.053 783.264ZM162.05 783.255L162.046 783.244L161.11 783.598L161.114 783.608L162.05 783.255ZM173.784 802.146C168.757 797.261 165.047 791.128 162.049 783.253L161.115 783.609C164.15 791.581 167.93 797.851 173.087 802.863L173.784 802.146ZM193.419 813.54C185.154 810.665 178.811 807.03 173.784 802.146L173.087 802.863C178.245 807.875 184.727 811.575 193.09 814.485L193.419 813.54ZM193.43 813.544L193.42 813.541L193.089 814.484L193.099 814.488L193.43 813.544ZM193.416 813.539L193.406 813.536L193.122 814.495L193.132 814.498L193.416 813.539ZM254.364 818.16C226.972 818.16 208.313 818.043 193.419 813.54L193.13 814.497C208.197 819.052 227.026 819.16 254.364 819.16V818.16ZM253.864 818.282V818.66H254.864V818.282H253.864ZM254.375 818.16C254.365 818.16 254.421 818.158 254.484 818.172C254.564 818.19 254.648 818.23 254.719 818.298C254.782 818.358 254.814 818.421 254.83 818.458C254.847 818.496 254.855 818.527 254.858 818.543C254.865 818.574 254.867 818.597 254.867 818.597C254.867 818.601 254.867 818.601 254.867 818.593C254.865 818.557 254.864 818.473 254.864 818.281L253.864 818.282C253.864 818.469 253.865 818.573 253.868 818.632C253.868 818.648 253.87 818.706 253.883 818.764C253.886 818.779 253.912 818.909 254.027 819.02C254.098 819.089 254.183 819.129 254.264 819.147C254.3 819.155 254.329 819.158 254.347 819.159C254.356 819.159 254.364 819.16 254.368 819.16C254.37 819.16 254.372 819.16 254.373 819.16C254.374 819.16 254.374 819.16 254.375 819.16C254.375 819.16 254.375 819.16 254.375 819.16C254.375 819.16 254.375 819.16 254.375 819.16V818.16ZM254.41 818.16H254.375V819.16H254.41V818.16ZM254.547 818.16H254.41V819.16H254.547V818.16ZM255.092 818.16L254.547 818.16L254.546 819.16L255.091 819.16L255.092 818.16ZM257.244 818.162L255.092 818.16L255.091 819.16L257.244 819.162L257.244 818.162ZM265.641 818.168L257.245 818.162L257.244 819.162L265.64 819.168L265.641 818.168ZM273.022 818.173L265.641 818.168L265.64 819.168L273.021 819.173L273.022 818.173ZM297.511 818.19L273.022 818.173L273.021 819.173L297.51 819.19L297.511 818.19ZM411.268 818.264C364.194 818.235 324.968 818.209 297.511 818.19L297.51 819.19C324.968 819.209 364.194 819.235 411.267 819.264L411.268 818.264ZM756.514 818.437C630.952 818.391 505.415 818.322 411.268 818.264L411.267 819.264C505.414 819.322 630.952 819.391 756.513 819.437L756.514 818.437ZM1101.91 818.472C1007.66 818.507 882.076 818.484 756.514 818.437L756.513 819.437C882.075 819.484 1007.66 819.507 1101.91 819.472L1101.91 818.472ZM1215.84 818.372C1188.31 818.423 1149.03 818.455 1101.91 818.472L1101.91 819.472C1149.03 819.455 1188.32 819.423 1215.85 819.372L1215.84 818.372ZM1247.83 818.282C1240.44 818.317 1229.61 818.347 1215.84 818.372L1215.85 819.372C1229.61 819.347 1240.44 819.317 1247.84 819.282L1247.83 818.282ZM1256.29 818.225C1254.37 818.245 1251.53 818.264 1247.83 818.282L1247.84 819.282C1251.54 819.264 1254.38 819.245 1256.3 819.225L1256.29 818.225ZM1257.66 818.208C1257.27 818.214 1256.82 818.219 1256.29 818.225L1256.3 819.225C1256.83 819.219 1257.29 819.214 1257.68 819.208L1257.66 818.208ZM1258.48 818.193C1258.26 818.198 1257.98 818.203 1257.66 818.208L1257.67 819.208C1258 819.203 1258.28 819.198 1258.5 819.193L1258.48 818.193ZM1258.84 818.184C1258.74 818.187 1258.62 818.19 1258.48 818.193L1258.5 819.193C1258.64 819.19 1258.76 819.187 1258.87 819.184L1258.84 818.184ZM1259.05 818.177C1258.99 818.179 1258.92 818.182 1258.84 818.184L1258.87 819.184C1258.95 819.181 1259.03 819.178 1259.09 819.176L1259.05 818.177ZM1259.19 818.168C1259.16 818.171 1259.11 818.174 1259.04 818.177L1259.09 819.176C1259.16 819.173 1259.22 819.169 1259.27 819.165L1259.19 818.168ZM1259.23 818.164C1259.22 818.166 1259.2 818.167 1259.19 818.169L1259.28 819.164C1259.3 819.162 1259.33 819.159 1259.36 819.156L1259.23 818.164ZM1319.16 813.521C1304.22 818.04 1286.66 818.159 1259.29 818.16V819.16C1286.61 819.159 1304.34 819.049 1319.45 814.478L1319.16 813.521ZM1319.18 813.518L1319.17 813.521L1319.45 814.478L1319.46 814.476L1319.18 813.518ZM1319.16 813.521L1319.15 813.525L1319.48 814.469L1319.49 814.465L1319.16 813.521ZM1339.1 802.166C1333.9 807.04 1327.4 810.655 1319.16 813.521L1319.49 814.465C1327.82 811.568 1334.46 807.89 1339.78 802.895L1339.1 802.166ZM1351.19 783.257C1348.18 791.158 1344.29 797.291 1339.1 802.166L1339.78 802.895C1345.11 797.896 1349.07 791.625 1352.12 783.613L1351.19 783.257ZM1351.19 783.25L1351.19 783.261L1352.12 783.609L1352.13 783.599L1351.19 783.25ZM1351.19 783.259L1351.18 783.27L1352.13 783.579L1352.14 783.569L1351.19 783.259ZM1356.37 725.978C1356.37 752.166 1355.9 769.018 1351.19 783.257L1352.14 783.571C1356.91 769.152 1357.37 752.131 1357.37 725.978H1356.37ZM1356.37 102.612V725.978H1357.37V102.612H1356.37ZM1351.17 45.3359C1355.9 59.6328 1356.37 76.4251 1356.37 102.612H1357.37C1357.37 76.4596 1356.91 59.499 1352.12 45.0218L1351.17 45.3359ZM1351.16 45.3231L1351.17 45.3336L1352.12 45.024L1352.12 45.0135L1351.16 45.3231ZM1351.17 45.3341L1351.17 45.3445L1352.11 44.9922L1352.1 44.9818L1351.17 45.3341ZM1339.21 26.4449C1344.35 31.3291 1348.17 37.4628 1351.17 45.3358L1352.1 44.9801C1349.07 37.0003 1345.17 30.7292 1339.9 25.7199L1339.21 26.4449ZM1319.35 15.0501C1327.61 17.9258 1334.07 21.5607 1339.21 26.4449L1339.9 25.7199C1334.63 20.7128 1328.04 17.0144 1319.68 14.1056L1319.35 15.0501ZM1319.34 15.0464L1319.35 15.0498L1319.68 14.106L1319.67 14.1025L1319.34 15.0464ZM1319.35 15.0514L1319.36 15.0543L1319.64 14.0946L1319.63 14.0917L1319.35 15.0514ZM1259.25 10.4307C1286.64 10.4307 1304.45 10.5474 1319.35 15.0501L1319.64 14.0929C1304.57 9.53806 1286.59 9.43066 1259.25 9.43066V10.4307ZM400.608 10.4307H1259.25V9.43066H400.608V10.4307ZM340.393 10.4307H400.608V9.43066H340.393V10.4307ZM253.06 10.4307H340.393V9.43066H253.06V10.4307ZM193.134 15.0727C184.903 17.9381 178.631 21.5528 173.666 26.4251L174.366 27.1389C179.2 22.3957 185.331 18.8478 193.463 16.0171L193.134 15.0727ZM253.06 10.4307C225.674 10.4307 208.104 10.5474 193.154 15.0663L193.443 16.0235C208.221 11.5566 225.624 11.4307 253.06 11.4307V10.4307ZM340.393 10.4307H253.06V11.4307H340.393V10.4307ZM400.608 10.4307H340.393V11.4307H400.608V10.4307ZM1259.25 10.4307H400.608V11.4307H1259.25V10.4307ZM1319.34 15.0471C1304.44 10.5473 1286.63 10.4307 1259.25 10.4307V11.4307C1286.69 11.4307 1304.32 11.5567 1319.05 16.0044L1319.34 15.0471ZM1339.21 26.4449C1334.07 21.5625 1327.62 17.9286 1319.36 15.0535L1319.03 15.998C1327.19 18.8399 1333.51 22.4104 1338.52 27.1698L1339.21 26.4449ZM1351.17 45.3268C1348.17 37.458 1344.35 31.3272 1339.21 26.4449L1338.52 27.1698C1343.53 31.9272 1347.28 37.9206 1350.23 45.6827L1351.17 45.3268ZM1356.37 102.612C1356.37 76.4324 1355.9 59.6422 1351.17 45.3478L1350.22 45.6617C1354.89 59.7758 1355.37 76.3979 1355.37 102.612H1356.37ZM1356.37 725.978V102.612H1355.37V725.978H1356.37ZM1351.19 783.245C1355.9 769.009 1356.37 752.159 1356.37 725.978H1355.37C1355.37 752.194 1354.89 768.876 1350.24 782.931L1351.19 783.245ZM1339.1 802.165C1344.29 797.293 1348.18 791.163 1351.18 783.266L1350.25 782.91C1347.29 790.695 1343.48 796.688 1338.41 801.436L1339.1 802.165ZM1319.17 813.517C1327.41 810.652 1333.91 807.038 1339.1 802.165L1338.41 801.436C1333.35 806.188 1326.98 809.74 1318.85 812.573L1319.17 813.517ZM1259.25 818.16C1286.63 818.16 1304.2 818.043 1319.16 813.524L1318.87 812.567C1304.08 817.034 1286.68 817.16 1259.25 817.16V818.16ZM1259.04 818.16H1259.25V817.16H1259.04V818.16ZM1259.37 818.038L1259.39 818.02L1258.7 817.299L1258.68 817.316L1259.37 818.038ZM1259.05 818.176L1259.05 818.176L1259 817.178L1258.99 817.178L1259.05 818.176ZM1258.48 818.193C1258.73 818.188 1258.92 818.182 1259.04 818.177L1259 817.178C1258.88 817.183 1258.71 817.188 1258.46 817.193L1258.48 818.193ZM1257.36 818.212C1257.81 818.206 1258.19 818.2 1258.48 818.193L1258.46 817.193C1258.17 817.2 1257.8 817.206 1257.35 817.212L1257.36 818.212ZM1256.29 818.225C1256.69 818.221 1257.04 818.216 1257.36 818.212L1257.35 817.212C1257.03 817.216 1256.68 817.221 1256.28 817.225L1256.29 818.225ZM1247.83 818.282C1251.53 818.264 1254.37 818.245 1256.29 818.225L1256.28 817.225C1254.36 817.245 1251.53 817.264 1247.83 817.282L1247.83 818.282ZM1215.84 818.372C1229.61 818.347 1240.44 818.317 1247.83 818.282L1247.83 817.282C1240.43 817.317 1229.61 817.347 1215.84 817.372L1215.84 818.372ZM1101.91 818.472C1149.03 818.455 1188.31 818.423 1215.84 818.372L1215.84 817.372C1188.31 817.423 1149.03 817.455 1101.91 817.472L1101.91 818.472ZM756.514 818.437C882.076 818.484 1007.66 818.507 1101.91 818.472L1101.91 817.472C1007.66 817.507 882.076 817.484 756.514 817.437L756.514 818.437ZM411.268 818.264C505.415 818.322 630.952 818.391 756.514 818.437L756.514 817.437C630.953 817.391 505.415 817.322 411.268 817.264L411.268 818.264ZM297.511 818.19C324.968 818.209 364.194 818.235 411.268 818.264L411.268 817.264C364.195 817.235 324.969 817.209 297.511 817.19L297.511 818.19ZM267.015 818.169L297.511 818.19L297.511 817.19L267.015 817.169L267.015 818.169ZM265.641 818.168L267.015 818.169L267.015 817.169L265.641 817.168L265.641 818.168ZM257.245 818.162L265.641 818.168L265.641 817.168L257.245 817.162L257.245 818.162ZM255.092 818.16L257.245 818.162L257.245 817.162L255.093 817.16L255.092 818.16ZM254.547 818.16L255.092 818.16L255.093 817.16L254.548 817.16L254.547 818.16ZM254.41 818.16H254.547V817.16H254.41V818.16ZM254.376 818.16H254.41V817.16H254.376V818.16ZM254.866 817.782C254.867 817.72 254.868 817.717 254.867 817.731C254.866 817.737 254.864 817.754 254.859 817.776C254.855 817.794 254.843 817.845 254.81 817.905C254.771 817.975 254.695 818.068 254.565 818.122C254.459 818.166 254.359 818.16 254.376 818.16V817.16C254.376 817.16 254.376 817.16 254.376 817.16C254.375 817.16 254.375 817.16 254.375 817.16C254.374 817.16 254.374 817.16 254.373 817.16C254.371 817.16 254.367 817.16 254.363 817.16C254.355 817.16 254.342 817.161 254.325 817.162C254.292 817.166 254.241 817.174 254.183 817.198C254.052 817.252 253.976 817.346 253.936 817.418C253.902 817.479 253.888 817.534 253.884 817.555C253.878 817.581 253.875 817.604 253.873 817.617C253.868 817.659 253.867 817.713 253.866 817.765L254.866 817.782ZM254.864 818.16C254.864 817.965 254.865 817.85 254.866 817.782L253.866 817.765C253.865 817.842 253.864 817.965 253.864 818.159L254.864 818.16ZM253.864 817.66V818.16H254.864V817.66H253.864ZM193.429 813.543C208.321 818.043 226.978 818.16 254.364 818.16V817.16C226.924 817.16 208.438 817.033 193.719 812.586L193.429 813.543ZM173.784 802.146C178.809 807.029 185.15 810.662 193.41 813.537L193.738 812.592C185.577 809.752 179.375 806.184 174.481 801.429L173.784 802.146ZM162.053 783.264C165.051 791.133 168.76 797.264 173.784 802.146L174.481 801.429C169.588 796.674 165.948 790.68 162.988 782.908L162.053 783.264ZM157.75 732.04C157.72 754.804 157.694 770.079 162.046 783.243L162.995 782.929C158.706 769.952 158.72 754.864 158.75 732.041L157.75 732.04ZM157.755 728.356C157.754 729.606 157.752 730.834 157.75 732.04L158.75 732.041C158.752 730.835 158.754 729.607 158.755 728.357L157.755 728.356ZM157.756 725.978C157.756 726.78 157.755 727.572 157.755 728.356L158.755 728.357C158.755 727.573 158.756 726.78 158.756 725.978H157.756ZM157.756 102.612V725.978H158.756V102.612H157.756ZM157.75 96.53C157.753 98.5 157.756 100.526 157.756 102.612H158.756C158.756 100.525 158.753 98.4986 158.75 96.5286L157.75 96.53ZM162.027 45.3437C157.694 58.4549 157.72 73.7707 157.75 96.53L158.75 96.5286C158.72 73.7103 158.705 58.581 162.976 45.6575L162.027 45.3437ZM173.666 26.4251C168.7 31.2971 165.041 37.4268 162.034 45.3227L162.969 45.6786C165.94 37.8752 169.532 31.8824 174.366 27.1389L173.666 26.4251ZM194.274 17.6629C186.472 20.3803 180.516 23.7864 175.799 28.3852L176.497 29.1013C181.083 24.631 186.898 21.2906 194.603 18.6073L194.274 17.6629ZM253.06 13.1669C225.971 13.1669 208.764 13.2845 194.294 17.6565L194.583 18.6138C208.881 14.2939 225.919 14.1669 253.06 14.1669V13.1669ZM1259.25 13.1669H253.06V14.1669H1259.25V13.1669ZM1318.18 17.6374C1303.76 13.2845 1286.34 13.1669 1259.25 13.1669V14.1669C1286.39 14.1669 1303.64 14.2939 1317.89 18.5947L1318.18 17.6374ZM1337.07 28.3463C1332.17 23.7669 1326.03 20.3707 1318.2 17.6439L1317.87 18.5883C1325.61 21.2838 1331.62 24.6186 1336.38 29.0766L1337.07 28.3463ZM1348.45 46.1464C1345.61 38.6873 1341.96 32.9253 1337.07 28.3463L1336.38 29.0766C1341.14 33.5307 1344.72 39.154 1347.51 46.5023L1348.45 46.1464ZM1353.51 102.612C1353.51 76.7123 1353.03 60.0046 1348.46 46.1674L1347.51 46.4813C1352.02 60.1375 1352.51 76.6754 1352.51 102.612H1353.51ZM1353.51 725.978V102.612H1352.51V725.978H1353.51ZM1348.48 782.307C1353.03 768.526 1353.51 751.878 1353.51 725.978H1352.51C1352.51 751.915 1352.02 768.394 1347.53 781.993L1348.48 782.307ZM1337.19 800.288C1342.03 795.648 1345.62 789.816 1348.47 782.328L1347.54 781.972C1344.72 789.357 1341.2 795.053 1336.5 799.567L1337.19 800.288ZM1318.49 811.092C1326.29 808.375 1332.36 804.928 1337.19 800.288L1336.5 799.567C1331.8 804.082 1325.87 807.464 1318.16 810.148L1318.49 811.092ZM1259.61 815.753C1286.34 815.753 1304 815.469 1318.47 811.099L1318.18 810.141C1303.88 814.461 1286.38 814.753 1259.61 814.753V815.753ZM253.418 815.753H1259.61V814.753H253.418V815.753ZM194.135 811.117C208.547 815.469 225.971 815.753 253.418 815.753V814.753C225.926 814.753 208.666 814.46 194.424 810.16L194.135 811.117ZM175.7 800.369C180.368 804.968 186.284 808.385 194.115 811.111L194.444 810.166C186.712 807.475 180.938 804.125 176.402 799.656L175.7 800.369ZM164.768 782.526C167.61 789.986 171.032 795.769 175.7 800.369L176.402 799.656C171.865 795.186 168.511 789.54 165.702 782.17L164.768 782.526ZM160.618 732.144C160.587 754.595 160.56 769.793 164.76 782.505L165.71 782.191C161.572 769.667 161.587 754.657 161.618 732.146L160.618 732.144ZM160.622 728.391C160.621 729.664 160.619 730.915 160.618 732.144L161.618 732.146C161.619 730.917 161.621 729.666 161.622 728.392L160.622 728.391ZM160.623 725.978C160.623 726.791 160.623 727.596 160.622 728.391L161.622 728.392C161.623 727.596 161.623 726.792 161.623 725.978H160.623ZM160.623 102.612V725.978H161.623V102.612H160.623ZM160.618 96.4247C160.621 98.4269 160.623 100.488 160.623 102.612H161.623C161.623 100.487 161.621 98.4254 161.618 96.4232L160.618 96.4247ZM164.741 46.2833C160.56 58.9405 160.586 74.0085 160.618 96.4246L161.618 96.4233C161.586 73.9459 161.571 59.0661 165.691 46.597L164.741 46.2833ZM175.799 28.3852C171.081 32.9838 167.601 38.7749 164.749 46.2622L165.683 46.6182C168.499 39.2251 171.911 33.5714 176.497 29.1013L175.799 28.3852ZM194.284 17.6595C208.756 13.2845 225.964 13.1669 253.06 13.1669V12.1669C226.016 12.1669 208.64 12.2751 193.995 16.7023L194.284 17.6595ZM194.277 17.6617L194.287 17.6587L193.992 16.7031L193.982 16.7062L194.277 17.6617ZM194.285 17.6593L194.295 17.6559L193.964 16.712L193.955 16.7154L194.285 17.6593ZM175.799 28.3853C180.518 23.7845 186.477 20.3773 194.284 17.6596L193.955 16.7152C186.051 19.4669 179.952 22.9399 175.101 27.6692L175.799 28.3853ZM164.745 46.2726C167.598 38.7803 171.079 32.9859 175.799 28.3853L175.101 27.6692C170.249 32.3984 166.699 38.3303 163.81 45.9168L164.745 46.2726ZM164.741 46.2837L164.745 46.2733L163.811 45.9162L163.807 45.9265L164.741 46.2837ZM164.745 46.2714L164.749 46.2608L163.799 45.9494L163.795 45.9601L164.745 46.2714ZM160.617 96.3566C160.585 73.9586 160.568 58.9059 164.745 46.2727L163.795 45.9588C159.557 58.7801 159.585 74.0204 159.617 96.358L160.617 96.3566ZM160.623 102.612C160.623 100.465 160.62 98.3812 160.617 96.3566L159.617 96.358C159.62 98.3827 159.623 100.466 159.623 102.612H160.623ZM160.623 725.978V102.612H159.623V725.978H160.623ZM160.617 732.213C160.62 730.194 160.623 728.117 160.623 725.978H159.623C159.623 728.116 159.62 730.192 159.617 732.211L160.617 732.213ZM164.764 782.516C160.568 769.828 160.585 754.645 160.617 732.213L159.617 732.211C159.585 754.583 159.557 769.954 163.815 782.83L164.764 782.516ZM164.767 782.524L164.763 782.513L163.816 782.833L163.819 782.843L164.767 782.524ZM164.765 782.517L164.761 782.507L163.825 782.86L163.829 782.871L164.765 782.517ZM175.7 800.368C171.029 795.767 167.607 789.98 164.764 782.516L163.83 782.872C166.707 790.426 170.196 796.349 174.998 801.081L175.7 800.368ZM194.125 811.114C186.289 808.388 180.37 804.97 175.7 800.368L174.998 801.081C179.801 805.813 185.861 809.298 193.797 812.059L194.125 811.114ZM194.134 811.117L194.124 811.114L193.798 812.059L193.808 812.062L194.134 811.117ZM194.123 811.113L194.113 811.11L193.829 812.069L193.839 812.072L194.123 811.113ZM253.418 815.753C225.964 815.753 208.539 815.469 194.125 811.114L193.836 812.071C208.421 816.478 226.009 816.753 253.418 816.753V815.753ZM1259.61 815.753H253.418V816.753H1259.61V815.753ZM1318.48 811.096C1304.01 815.469 1286.35 815.753 1259.61 815.753V816.753C1286.3 816.753 1304.13 816.478 1318.77 812.053L1318.48 811.096ZM1318.5 811.092L1318.49 811.095L1318.77 812.055L1318.78 812.052L1318.5 811.092ZM1318.48 811.096L1318.47 811.1L1318.8 812.044L1318.81 812.04L1318.48 811.096ZM1337.19 800.288C1332.36 804.93 1326.29 808.378 1318.48 811.096L1318.81 812.041C1326.72 809.289 1332.92 805.776 1337.89 801.01L1337.19 800.288ZM1348.47 782.319C1345.62 789.811 1342.03 795.647 1337.19 800.288L1337.89 801.01C1342.85 796.242 1346.52 790.27 1349.41 782.674L1348.47 782.319ZM1348.48 782.308L1348.47 782.319L1349.41 782.675L1349.41 782.664L1348.48 782.308ZM1348.47 782.321L1348.47 782.332L1349.42 782.641L1349.42 782.631L1348.47 782.321ZM1353.51 725.978C1353.51 751.885 1353.03 768.536 1348.47 782.319L1349.42 782.633C1354.04 768.669 1354.51 751.848 1354.51 725.978H1353.51ZM1353.51 102.612V725.978H1354.51V102.612H1353.51ZM1348.45 46.1578C1353.03 59.9968 1353.51 76.7062 1353.51 102.612H1354.51C1354.51 76.743 1354.04 59.8638 1349.4 45.8437L1348.45 46.1578ZM1348.45 46.145L1348.45 46.1555L1349.4 45.8459L1349.4 45.8354L1348.45 46.145ZM1348.45 46.156L1348.46 46.1664L1349.39 45.8141L1349.39 45.8037L1348.45 46.156ZM1337.07 28.3462C1341.96 32.9275 1345.61 38.6932 1348.45 46.1577L1349.39 45.802C1346.5 38.2267 1342.78 32.3222 1337.75 27.6159L1337.07 28.3462ZM1318.19 17.6404C1326.02 20.3678 1332.17 23.7649 1337.07 28.3462L1337.75 27.6159C1332.72 22.9131 1326.44 19.4547 1318.51 16.696L1318.19 17.6404ZM1318.17 17.6367L1318.18 17.6401L1318.51 16.6963L1318.5 16.6929L1318.17 17.6367ZM1318.18 17.64L1318.19 17.6431L1318.49 16.6865L1318.48 16.6835L1318.18 17.64ZM1259.25 13.1669C1286.35 13.1669 1303.77 13.2845 1318.18 17.6404L1318.47 16.6831C1303.89 12.2751 1286.29 12.1669 1259.25 12.1669V13.1669ZM253.06 13.1669H1259.25V12.1669H253.06V13.1669Z" fill="#424B5A"/>
<path fill-rule="evenodd" clip-rule="evenodd" d="M762.229 33.8594C758.609 33.8594 755.676 36.7901 755.676 40.4053C755.676 44.0206 758.609 46.9513 762.229 46.9513C765.848 46.9513 768.781 44.0206 768.781 40.4053C768.781 36.7901 765.848 33.8594 762.229 33.8594Z" fill="#424B5A"/>
<path fill-rule="evenodd" clip-rule="evenodd" d="M1265.75 5.7865C1293.2 5.7865 1310.85 5.90631 1325.45 10.3423C1341.32 15.8974 1350.35 24.1805 1356.11 39.3841C1360.75 53.4777 1361.23 70.4943 1361.23 96.8769V731.707C1361.23 758.09 1360.75 775.047 1356.13 789.084C1350.35 804.344 1341.57 812.854 1325.75 818.39C1311.09 822.844 1293.2 823.133 1266.11 823.133H246.91C219.101 823.133 201.451 822.844 186.85 818.409C170.975 812.855 162.869 804.488 157.109 789.284C152.475 775.192 152.915 758.09 152.915 731.707V96.8769C152.915 70.4943 152.475 53.5372 157.09 39.5011C162.869 24.2409 171.195 15.8974 187.011 10.3618C201.671 5.90631 219.101 5.7865 246.548 5.7865H1265.75ZM335.01 3H246.548C218.801 3 201.002 3.11889 185.856 7.72389C169.171 13.5614 160.433 22.4519 154.34 38.5443C149.57 53.0476 150.011 70.2091 150.011 96.8768V731.707C150.011 758.376 149.57 775.477 154.36 790.036C160.433 806.073 169.392 815.023 186.135 820.879C201.222 825.465 220.122 825.584 247.868 825.584C247.868 825.584 1264.96 826.338 1265.75 825.584C1293.49 825.584 1311.29 825.465 1326.44 820.86C1343.12 815.023 1352.79 806.132 1358.88 790.039C1363.65 775.539 1364.13 758.376 1364.13 731.707V96.8768C1364.13 70.2081 1363.65 53.107 1358.86 38.5471C1352.79 22.5114 1343.37 13.5614 1326.63 7.70438C1311.53 3.11889 1293.5 3 1265.75 3H396.004H335.01Z" fill="#424B5A"/>
<path fill-rule="evenodd" clip-rule="evenodd" d="M213.576 771.505H1304.07V65.4414H213.576V771.505Z" fill="white"/>
<path fill-rule="evenodd" clip-rule="evenodd" d="M1305.12 64.5244H1302.99H214.627H212.501V66.3583V770.588V772.422H214.627H1302.99H1305.12V770.588V66.3583V64.5244ZM214.626 770.588H1302.99V66.3586H214.626V770.588Z" fill="#424B5A"/>
<rect x="722.672" y="392.798" width="63.6568" height="52.3676" rx="4" fill="white"/>
<path fill-rule="evenodd" clip-rule="evenodd" d="M782.584 392.798H726.416C724.348 392.798 722.672 394.473 722.672 396.538V441.425C722.672 443.491 724.348 445.165 726.416 445.165H782.584C784.652 445.165 786.329 443.491 786.329 441.425V396.538C786.329 394.473 784.652 392.798 782.584 392.798ZM726.416 441.425V396.538H782.584V441.425H726.416Z" fill="#C2D1D9"/>
<path fill-rule="evenodd" clip-rule="evenodd" d="M732.97 408.227C732.97 412.101 736.113 415.241 739.991 415.241C743.869 415.241 747.012 412.101 747.012 408.227C747.012 404.354 743.869 401.214 739.991 401.214C736.113 401.214 732.97 404.354 732.97 408.227ZM743.267 408.227C743.267 410.035 741.8 411.5 739.991 411.5C738.181 411.5 736.715 410.035 736.715 408.227C736.715 406.42 738.181 404.954 739.991 404.954C741.8 404.954 743.267 406.42 743.267 408.227Z" fill="#C2D1D9"/>
<path d="M736.161 437.142C735.426 437.869 734.241 437.864 733.513 437.13C732.785 436.397 732.79 435.213 733.524 434.485L748.923 419.235L757.602 426.776C758.382 427.454 758.465 428.636 757.786 429.415C757.107 430.194 755.925 430.277 755.145 429.599L749.089 424.338L736.161 437.142Z" fill="#C2D1D9"/>
<path d="M750.207 437.136C749.476 437.867 748.29 437.867 747.559 437.136C746.828 436.406 746.828 435.222 747.559 434.491L772.2 409.874L785.691 421.698C786.468 422.379 786.545 423.561 785.863 424.338C785.181 425.114 783.998 425.191 783.221 424.51L772.368 414.997L750.207 437.136Z" fill="#C2D1D9"/>
<rect x="379.134" y="814.503" width="723.629" height="39.2756" fill="#424B5A"/>
<path fill-rule="evenodd" clip-rule="evenodd" d="M638.5 814.503C638.462 814.809 638.442 815.121 638.442 815.438V830.4C638.442 834.532 641.795 837.881 645.931 837.881H864.049C868.185 837.881 871.538 834.532 871.538 830.4V815.438C871.538 815.121 871.519 814.809 871.48 814.503H1494.06V827.595C1494.06 848.253 1477.3 865 1456.62 865H40.2546C19.5742 865 2.80937 848.253 2.80937 827.595V814.503H638.5V814.503Z" fill="white"/>
<path fill-rule="evenodd" clip-rule="evenodd" d="M639.378 815.438C639.378 815.121 639.398 814.809 639.436 814.503H2.80937V827.595C2.80937 848.253 19.5742 865 40.2546 865H1456.62C1477.3 865 1494.06 848.253 1494.06 827.595V814.503H871.48C871.519 814.809 871.538 815.121 871.538 815.438V829.465C871.538 833.597 868.185 836.946 864.049 836.946H646.867C642.731 836.946 639.378 833.597 639.378 829.465V815.438ZM5.61873 817.308H636.57V829.465C636.57 835.146 641.181 839.751 646.868 839.751H864.05C869.737 839.751 874.348 835.146 874.348 829.465V817.308H1491.26V827.595C1491.26 846.704 1475.75 862.195 1456.62 862.195H40.2555C21.1262 862.195 5.61873 846.704 5.61873 827.595V817.308Z" fill="#424B5A"/>
</svg>
